# xmcd
#
# Track frame offsets:
# 150
# 20708
# 38103
# 50018
# 65749
# 78537
# 93645
# 98753
# 109479
# 120775
# 134062
# 144751
# 153826
# 161640
# 170779
# 183455
# 194839
# 209603
# 221140
#
# Disc length: 3256 seconds
#
#
# Revision: 1
# Processed by: cddbd v1.5PL3 Copyright (c) Steve Scherf et al.
# Submitted via: FreeRIP 2.70 
#
DISCID=260cb613
DTITLE=Memphis Slim - Lonely Nights
DYEAR=1999
DGENRE=Blues
TTITLE0=Bye Bye Will Be On My Way
TTITLE1=Letter Home
TTITLE2=Memphis Slim USA
TTITLE3=Born With The Blues
TTITLE4=Rocking The House
TTITLE5=I Wanna Dance
TTITLE6=Coco Boogie
TTITLE7=Fat Cat
TTITLE8=Chunkin'
TTITLE9=Lonely Nights
TTITLE10=Walk On
TTITLE11=Pretending I'm Happy
TTITLE12=The Big Dream
TTITLE13=The Natural Fact
TTITLE14=Blues Universal
TTITLE15=She's Gone For Twelve Hours
TTITLE16=My Walking Shoes
TTITLE17=When I'm Gone
TTITLE18=T.W.A.
EXTD=Recorded 1969 in Paris, France.\nMusicians:\nMemphis Slim (Piano and Vocals]\nLowell Fulson (Guitar]\nCarey Bell (Bass]\nS P Leary and Michel Denis (Drums)
EXTT0=
EXTT1=
EXTT2=
EXTT3=
EXTT4=
EXTT5=
EXTT6=
EXTT7=
EXTT8=
EXTT9=
EXTT10=
EXTT11=
EXTT12=
EXTT13=
EXTT14=
EXTT15=
EXTT16=
EXTT17=
EXTT18=
PLAYORDER=
